<svg xmlns="http://www.w3.org/2000/svg" xmlns:xlink="http://www.w3.org/1999/xlink" width="464" zoomAndPan="magnify" viewBox="0 0 348 41.25" height="55" preserveAspectRatio="xMidYMid meet" version="1.0"><defs><g/></defs><g fill="#d32f23" fill-opacity="0.4196"><g transform="translate(91.526729, 22.405602)"><g><path d="M 5.078125 -13.453125 C 5.847656 -13.453125 6.53125 -13.269531 7.125 -12.90625 C 7.71875 -12.539062 8.179688 -12.03125 8.515625 -11.375 C 8.847656 -10.71875 9.015625 -9.96875 9.015625 -9.125 C 9.015625 -8.3125 8.859375 -7.585938 8.546875 -6.953125 C 8.234375 -6.328125 7.789062 -5.84375 7.21875 -5.5 C 6.65625 -5.164062 6.003906 -5 5.265625 -5 L 4.1875 -5 C 4.113281 -5 4.078125 -4.957031 4.078125 -4.875 L 4.078125 -0.28125 C 4.078125 -0.195312 4.050781 -0.128906 4 -0.078125 C 3.945312 -0.0234375 3.875 0 3.78125 0 L 0.75 0 C 0.65625 0 0.582031 -0.0234375 0.53125 -0.078125 C 0.488281 -0.128906 0.46875 -0.195312 0.46875 -0.28125 L 0.46875 -13.171875 C 0.46875 -13.253906 0.488281 -13.320312 0.53125 -13.375 C 0.582031 -13.425781 0.65625 -13.453125 0.75 -13.453125 Z M 4.4375 -7.78125 C 4.726562 -7.78125 4.960938 -7.882812 5.140625 -8.09375 C 5.316406 -8.3125 5.40625 -8.628906 5.40625 -9.046875 C 5.40625 -9.472656 5.316406 -9.796875 5.140625 -10.015625 C 4.960938 -10.242188 4.726562 -10.359375 4.4375 -10.359375 L 4.1875 -10.359375 C 4.113281 -10.359375 4.078125 -10.320312 4.078125 -10.25 L 4.078125 -7.90625 C 4.078125 -7.820312 4.113281 -7.78125 4.1875 -7.78125 Z M 4.4375 -7.78125 "/></g></g></g><g fill="#d32f23" fill-opacity="0.4196"><g transform="translate(100.766452, 22.405602)"><g><path d="M 8.1875 -10.640625 C 8.1875 -10.554688 8.160156 -10.488281 8.109375 -10.4375 C 8.054688 -10.382812 7.988281 -10.359375 7.90625 -10.359375 L 4.234375 -10.359375 C 4.148438 -10.359375 4.109375 -10.320312 4.109375 -10.25 L 4.109375 -8.40625 C 4.109375 -8.320312 4.148438 -8.28125 4.234375 -8.28125 L 6.125 -8.28125 C 6.21875 -8.28125 6.289062 -8.253906 6.34375 -8.203125 C 6.394531 -8.148438 6.421875 -8.082031 6.421875 -8 L 6.421875 -5.484375 C 6.421875 -5.390625 6.394531 -5.316406 6.34375 -5.265625 C 6.289062 -5.210938 6.21875 -5.1875 6.125 -5.1875 L 4.234375 -5.1875 C 4.148438 -5.1875 4.109375 -5.148438 4.109375 -5.078125 L 4.109375 -3.203125 C 4.109375 -3.128906 4.148438 -3.09375 4.234375 -3.09375 L 7.90625 -3.09375 C 7.988281 -3.09375 8.054688 -3.066406 8.109375 -3.015625 C 8.160156 -2.960938 8.1875 -2.894531 8.1875 -2.8125 L 8.1875 -0.28125 C 8.1875 -0.195312 8.160156 -0.128906 8.109375 -0.078125 C 8.054688 -0.0234375 7.988281 0 7.90625 0 L 0.78125 0 C 0.695312 0 0.628906 -0.0234375 0.578125 -0.078125 C 0.523438 -0.128906 0.5 -0.195312 0.5 -0.28125 L 0.5 -13.171875 C 0.5 -13.253906 0.523438 -13.320312 0.578125 -13.375 C 0.628906 -13.425781 0.695312 -13.453125 0.78125 -13.453125 L 7.90625 -13.453125 C 7.988281 -13.453125 8.054688 -13.425781 8.109375 -13.375 C 8.160156 -13.320312 8.1875 -13.253906 8.1875 -13.171875 Z M 8.1875 -10.640625 "/></g></g></g><g fill="#d32f23" fill-opacity="0.4196"><g transform="translate(109.295431, 22.405602)"><g><path d="M 5.75 0 C 5.582031 0 5.476562 -0.0820312 5.4375 -0.25 L 4.265625 -5.078125 C 4.242188 -5.140625 4.21875 -5.171875 4.1875 -5.171875 C 4.132812 -5.171875 4.109375 -5.128906 4.109375 -5.046875 L 4.109375 -0.28125 C 4.109375 -0.195312 4.082031 -0.128906 4.03125 -0.078125 C 3.976562 -0.0234375 3.910156 0 3.828125 0 L 0.78125 0 C 0.695312 0 0.628906 -0.0234375 0.578125 -0.078125 C 0.523438 -0.128906 0.5 -0.195312 0.5 -0.28125 L 0.5 -13.171875 C 0.5 -13.253906 0.523438 -13.320312 0.578125 -13.375 C 0.628906 -13.425781 0.695312 -13.453125 0.78125 -13.453125 L 5.109375 -13.453125 C 5.878906 -13.453125 6.5625 -13.269531 7.15625 -12.90625 C 7.75 -12.539062 8.210938 -12.035156 8.546875 -11.390625 C 8.878906 -10.742188 9.046875 -10.003906 9.046875 -9.171875 C 9.046875 -8.460938 8.925781 -7.828125 8.6875 -7.265625 C 8.445312 -6.710938 8.09375 -6.265625 7.625 -5.921875 C 7.570312 -5.878906 7.554688 -5.828125 7.578125 -5.765625 L 9.125 -0.328125 C 9.132812 -0.296875 9.140625 -0.265625 9.140625 -0.234375 C 9.140625 -0.078125 9.050781 0 8.875 0 Z M 4.234375 -10.359375 C 4.148438 -10.359375 4.109375 -10.320312 4.109375 -10.25 L 4.109375 -8.03125 C 4.109375 -7.957031 4.148438 -7.921875 4.234375 -7.921875 L 4.484375 -7.921875 C 4.765625 -7.921875 4.992188 -8.023438 5.171875 -8.234375 C 5.347656 -8.441406 5.4375 -8.738281 5.4375 -9.125 C 5.4375 -9.519531 5.347656 -9.820312 5.171875 -10.03125 C 5.003906 -10.25 4.773438 -10.359375 4.484375 -10.359375 Z M 4.234375 -10.359375 "/></g></g></g><g fill="#d32f23" fill-opacity="0.4196"><g transform="translate(118.708044, 22.405602)"><g><path d="M 6.078125 -13.171875 C 6.078125 -13.253906 6.101562 -13.320312 6.15625 -13.375 C 6.207031 -13.425781 6.273438 -13.453125 6.359375 -13.453125 L 9.359375 -13.453125 C 9.453125 -13.453125 9.519531 -13.425781 9.5625 -13.375 C 9.613281 -13.320312 9.640625 -13.253906 9.640625 -13.171875 L 9.640625 -0.28125 C 9.640625 -0.195312 9.613281 -0.128906 9.5625 -0.078125 C 9.519531 -0.0234375 9.453125 0 9.359375 0 L 5.9375 0 C 5.769531 0 5.664062 -0.0820312 5.625 -0.25 L 4.171875 -6.078125 C 4.160156 -6.109375 4.132812 -6.125 4.09375 -6.125 C 4.050781 -6.125 4.03125 -6.097656 4.03125 -6.046875 L 4.078125 -0.28125 C 4.078125 -0.195312 4.050781 -0.128906 4 -0.078125 C 3.945312 -0.0234375 3.875 0 3.78125 0 L 0.78125 0 C 0.695312 0 0.628906 -0.0234375 0.578125 -0.078125 C 0.523438 -0.128906 0.5 -0.195312 0.5 -0.28125 L 0.5 -13.171875 C 0.5 -13.253906 0.523438 -13.320312 0.578125 -13.375 C 0.628906 -13.425781 0.695312 -13.453125 0.78125 -13.453125 L 4.171875 -13.453125 C 4.335938 -13.453125 4.441406 -13.367188 4.484375 -13.203125 L 5.953125 -7.359375 C 5.972656 -7.304688 6 -7.28125 6.03125 -7.28125 C 6.070312 -7.28125 6.09375 -7.304688 6.09375 -7.359375 Z M 6.078125 -13.171875 "/></g></g></g><g fill="#d32f23" fill-opacity="0.4196"><g transform="translate(128.85061, 22.405602)"><g><path d="M 6.546875 0 C 6.359375 0 6.257812 -0.0859375 6.25 -0.265625 L 6.03125 -1.703125 C 6.03125 -1.734375 6.015625 -1.757812 5.984375 -1.78125 C 5.960938 -1.8125 5.9375 -1.828125 5.90625 -1.828125 L 4.203125 -1.828125 C 4.171875 -1.828125 4.140625 -1.8125 4.109375 -1.78125 C 4.085938 -1.757812 4.078125 -1.734375 4.078125 -1.703125 L 3.875 -0.265625 C 3.863281 -0.0859375 3.765625 0 3.578125 0 L 0.5625 0 C 0.351562 0 0.269531 -0.101562 0.3125 -0.3125 L 3.03125 -13.203125 C 3.070312 -13.367188 3.179688 -13.453125 3.359375 -13.453125 L 6.859375 -13.453125 C 7.035156 -13.453125 7.144531 -13.367188 7.1875 -13.203125 L 9.921875 -0.3125 L 9.921875 -0.234375 C 9.921875 -0.078125 9.828125 0 9.640625 0 Z M 4.5 -4.703125 C 4.5 -4.628906 4.53125 -4.59375 4.59375 -4.59375 L 5.5 -4.59375 C 5.582031 -4.59375 5.613281 -4.628906 5.59375 -4.703125 L 5.078125 -8.171875 C 5.054688 -8.222656 5.035156 -8.25 5.015625 -8.25 C 4.992188 -8.25 4.972656 -8.222656 4.953125 -8.171875 Z M 4.5 -4.703125 "/></g></g></g><g fill="#d32f23" fill-opacity="0.4196"><g transform="translate(139.050802, 22.405602)"><g><path d="M 6.84375 -13.234375 C 6.914062 -13.378906 7.03125 -13.453125 7.1875 -13.453125 L 10.1875 -13.453125 C 10.28125 -13.453125 10.347656 -13.425781 10.390625 -13.375 C 10.441406 -13.320312 10.46875 -13.253906 10.46875 -13.171875 L 10.46875 -0.28125 C 10.46875 -0.195312 10.441406 -0.128906 10.390625 -0.078125 C 10.347656 -0.0234375 10.28125 0 10.1875 0 L 7.15625 0 C 7.0625 0 6.988281 -0.0234375 6.9375 -0.078125 C 6.882812 -0.128906 6.859375 -0.195312 6.859375 -0.28125 L 6.859375 -8.109375 C 6.859375 -8.160156 6.84375 -8.191406 6.8125 -8.203125 C 6.78125 -8.210938 6.75 -8.195312 6.71875 -8.15625 L 5.625 -6.296875 L 5.4375 -5.953125 L 5.421875 -5.953125 L 4.15625 -8.15625 C 4.125 -8.195312 4.09375 -8.210938 4.0625 -8.203125 C 4.03125 -8.203125 4.015625 -8.171875 4.015625 -8.109375 L 4.015625 -0.28125 C 4.015625 -0.195312 3.988281 -0.128906 3.9375 -0.078125 C 3.882812 -0.0234375 3.816406 0 3.734375 0 L 0.6875 0 C 0.601562 0 0.535156 -0.0234375 0.484375 -0.078125 C 0.429688 -0.128906 0.40625 -0.195312 0.40625 -0.28125 L 0.40625 -13.171875 C 0.40625 -13.253906 0.429688 -13.320312 0.484375 -13.375 C 0.535156 -13.425781 0.601562 -13.453125 0.6875 -13.453125 L 3.6875 -13.453125 C 3.851562 -13.453125 3.96875 -13.378906 4.03125 -13.234375 L 5.375 -10.78125 C 5.40625 -10.738281 5.4375 -10.710938 5.46875 -10.703125 C 5.5 -10.703125 5.519531 -10.726562 5.53125 -10.78125 Z M 6.84375 -13.234375 "/></g></g></g><g fill="#d32f23" fill-opacity="0.4196"><g transform="translate(149.923321, 22.405602)"><g><path d="M 9 -3.78125 C 9 -2.5625 8.609375 -1.625 7.828125 -0.96875 C 7.046875 -0.320312 6.050781 0 4.84375 0 L 0.78125 0 C 0.695312 0 0.628906 -0.0234375 0.578125 -0.078125 C 0.523438 -0.128906 0.5 -0.195312 0.5 -0.28125 L 0.5 -13.171875 C 0.5 -13.253906 0.523438 -13.320312 0.578125 -13.375 C 0.628906 -13.425781 0.695312 -13.453125 0.78125 -13.453125 L 4.265625 -13.453125 C 5.660156 -13.453125 6.75 -13.132812 7.53125 -12.5 C 8.320312 -11.875 8.71875 -10.929688 8.71875 -9.671875 C 8.71875 -8.492188 8.351562 -7.613281 7.625 -7.03125 C 7.5625 -6.976562 7.550781 -6.9375 7.59375 -6.90625 C 8.53125 -6.1875 9 -5.144531 9 -3.78125 Z M 4.234375 -10.359375 C 4.148438 -10.359375 4.109375 -10.320312 4.109375 -10.25 L 4.109375 -8.328125 C 4.109375 -8.242188 4.148438 -8.203125 4.234375 -8.203125 L 4.328125 -8.203125 C 4.898438 -8.203125 5.1875 -8.5625 5.1875 -9.28125 C 5.1875 -10 4.898438 -10.359375 4.328125 -10.359375 Z M 4.5625 -3.09375 C 4.800781 -3.09375 4.992188 -3.195312 5.140625 -3.40625 C 5.296875 -3.625 5.375 -3.929688 5.375 -4.328125 C 5.375 -4.722656 5.300781 -5.035156 5.15625 -5.265625 C 5.007812 -5.503906 4.816406 -5.625 4.578125 -5.625 L 4.234375 -5.625 C 4.148438 -5.625 4.109375 -5.585938 4.109375 -5.515625 L 4.109375 -3.203125 C 4.109375 -3.128906 4.148438 -3.09375 4.234375 -3.09375 Z M 4.5625 -3.09375 "/></g></g></g><g fill="#d32f23" fill-opacity="0.4196"><g transform="translate(159.22067, 22.405602)"><g><path d="M 4.625 0.15625 C 3.789062 0.15625 3.0625 -0.015625 2.4375 -0.359375 C 1.8125 -0.710938 1.328125 -1.203125 0.984375 -1.828125 C 0.640625 -2.453125 0.46875 -3.175781 0.46875 -4 L 0.46875 -13.171875 C 0.46875 -13.253906 0.488281 -13.320312 0.53125 -13.375 C 0.582031 -13.425781 0.65625 -13.453125 0.75 -13.453125 L 3.78125 -13.453125 C 3.875 -13.453125 3.945312 -13.425781 4 -13.375 C 4.050781 -13.320312 4.078125 -13.253906 4.078125 -13.171875 L 4.078125 -3.65625 C 4.078125 -3.4375 4.125 -3.257812 4.21875 -3.125 C 4.320312 -3 4.457031 -2.9375 4.625 -2.9375 C 4.789062 -2.9375 4.921875 -3 5.015625 -3.125 C 5.117188 -3.257812 5.171875 -3.4375 5.171875 -3.65625 L 5.171875 -13.171875 C 5.171875 -13.253906 5.195312 -13.320312 5.25 -13.375 C 5.300781 -13.425781 5.367188 -13.453125 5.453125 -13.453125 L 8.5 -13.453125 C 8.582031 -13.453125 8.648438 -13.425781 8.703125 -13.375 C 8.753906 -13.320312 8.78125 -13.253906 8.78125 -13.171875 L 8.78125 -4 C 8.78125 -3.175781 8.609375 -2.453125 8.265625 -1.828125 C 7.921875 -1.203125 7.429688 -0.710938 6.796875 -0.359375 C 6.171875 -0.015625 5.445312 0.15625 4.625 0.15625 Z M 4.625 0.15625 "/></g></g></g><g fill="#d32f23" fill-opacity="0.4196"><g transform="translate(168.460393, 22.405602)"><g><path d="M 4.59375 0.15625 C 3.320312 0.15625 2.300781 -0.210938 1.53125 -0.953125 C 0.769531 -1.703125 0.390625 -2.695312 0.390625 -3.9375 L 0.390625 -9.546875 C 0.390625 -10.796875 0.769531 -11.785156 1.53125 -12.515625 C 2.289062 -13.242188 3.3125 -13.609375 4.59375 -13.609375 C 5.863281 -13.609375 6.878906 -13.242188 7.640625 -12.515625 C 8.410156 -11.785156 8.796875 -10.796875 8.796875 -9.546875 L 8.796875 -9.453125 C 8.796875 -9.367188 8.769531 -9.296875 8.71875 -9.234375 C 8.664062 -9.171875 8.597656 -9.140625 8.515625 -9.140625 L 5.484375 -9.046875 C 5.285156 -9.046875 5.1875 -9.140625 5.1875 -9.328125 L 5.1875 -9.796875 C 5.1875 -10.015625 5.128906 -10.1875 5.015625 -10.3125 C 4.910156 -10.445312 4.769531 -10.515625 4.59375 -10.515625 C 4.414062 -10.515625 4.269531 -10.445312 4.15625 -10.3125 C 4.050781 -10.1875 4 -10.015625 4 -9.796875 L 4 -3.625 C 4 -3.414062 4.050781 -3.25 4.15625 -3.125 C 4.269531 -3 4.414062 -2.9375 4.59375 -2.9375 C 4.769531 -2.9375 4.910156 -3 5.015625 -3.125 C 5.128906 -3.25 5.1875 -3.414062 5.1875 -3.625 L 5.1875 -4.15625 C 5.1875 -4.332031 5.285156 -4.421875 5.484375 -4.421875 L 8.515625 -4.328125 C 8.597656 -4.328125 8.664062 -4.296875 8.71875 -4.234375 C 8.769531 -4.179688 8.796875 -4.109375 8.796875 -4.015625 L 8.796875 -3.9375 C 8.796875 -3.113281 8.617188 -2.390625 8.265625 -1.765625 C 7.921875 -1.148438 7.429688 -0.675781 6.796875 -0.34375 C 6.160156 -0.0078125 5.425781 0.15625 4.59375 0.15625 Z M 4.59375 0.15625 "/></g></g></g><g fill="#d32f23" fill-opacity="0.4196"><g transform="translate(177.604073, 22.405602)"><g><path d="M 4.65625 0.15625 C 3.351562 0.15625 2.316406 -0.210938 1.546875 -0.953125 C 0.773438 -1.703125 0.390625 -2.703125 0.390625 -3.953125 L 0.390625 -9.5 C 0.390625 -10.75 0.773438 -11.742188 1.546875 -12.484375 C 2.316406 -13.234375 3.351562 -13.609375 4.65625 -13.609375 C 5.945312 -13.609375 6.976562 -13.234375 7.75 -12.484375 C 8.53125 -11.742188 8.921875 -10.75 8.921875 -9.5 L 8.921875 -3.953125 C 8.921875 -2.703125 8.53125 -1.703125 7.75 -0.953125 C 6.976562 -0.210938 5.945312 0.15625 4.65625 0.15625 Z M 4.65625 -2.9375 C 4.851562 -2.9375 5.007812 -3.015625 5.125 -3.171875 C 5.238281 -3.328125 5.296875 -3.539062 5.296875 -3.8125 L 5.296875 -9.640625 C 5.296875 -9.910156 5.238281 -10.125 5.125 -10.28125 C 5.007812 -10.4375 4.851562 -10.515625 4.65625 -10.515625 C 4.445312 -10.515625 4.285156 -10.4375 4.171875 -10.28125 C 4.054688 -10.125 4 -9.910156 4 -9.640625 L 4 -3.8125 C 4 -3.539062 4.054688 -3.328125 4.171875 -3.171875 C 4.285156 -3.015625 4.445312 -2.9375 4.65625 -2.9375 Z M 4.65625 -2.9375 "/></g></g></g><g fill="#75c7fb" fill-opacity="1"><g transform="translate(90.955358, 21.891139)"><g><path d="M 5.078125 -13.453125 C 5.847656 -13.453125 6.53125 -13.269531 7.125 -12.90625 C 7.71875 -12.539062 8.179688 -12.03125 8.515625 -11.375 C 8.847656 -10.71875 9.015625 -9.96875 9.015625 -9.125 C 9.015625 -8.3125 8.859375 -7.585938 8.546875 -6.953125 C 8.234375 -6.328125 7.789062 -5.84375 7.21875 -5.5 C 6.65625 -5.164062 6.003906 -5 5.265625 -5 L 4.1875 -5 C 4.113281 -5 4.078125 -4.957031 4.078125 -4.875 L 4.078125 -0.28125 C 4.078125 -0.195312 4.050781 -0.128906 4 -0.078125 C 3.945312 -0.0234375 3.875 0 3.78125 0 L 0.75 0 C 0.65625 0 0.582031 -0.0234375 0.53125 -0.078125 C 0.488281 -0.128906 0.46875 -0.195312 0.46875 -0.28125 L 0.46875 -13.171875 C 0.46875 -13.253906 0.488281 -13.320312 0.53125 -13.375 C 0.582031 -13.425781 0.65625 -13.453125 0.75 -13.453125 Z M 4.4375 -7.78125 C 4.726562 -7.78125 4.960938 -7.882812 5.140625 -8.09375 C 5.316406 -8.3125 5.40625 -8.628906 5.40625 -9.046875 C 5.40625 -9.472656 5.316406 -9.796875 5.140625 -10.015625 C 4.960938 -10.242188 4.726562 -10.359375 4.4375 -10.359375 L 4.1875 -10.359375 C 4.113281 -10.359375 4.078125 -10.320312 4.078125 -10.25 L 4.078125 -7.90625 C 4.078125 -7.820312 4.113281 -7.78125 4.1875 -7.78125 Z M 4.4375 -7.78125 "/></g></g></g><g fill="#75c7fb" fill-opacity="1"><g transform="translate(100.195081, 21.891139)"><g><path d="M 8.1875 -10.640625 C 8.1875 -10.554688 8.160156 -10.488281 8.109375 -10.4375 C 8.054688 -10.382812 7.988281 -10.359375 7.90625 -10.359375 L 4.234375 -10.359375 C 4.148438 -10.359375 4.109375 -10.320312 4.109375 -10.25 L 4.109375 -8.40625 C 4.109375 -8.320312 4.148438 -8.28125 4.234375 -8.28125 L 6.125 -8.28125 C 6.21875 -8.28125 6.289062 -8.253906 6.34375 -8.203125 C 6.394531 -8.148438 6.421875 -8.082031 6.421875 -8 L 6.421875 -5.484375 C 6.421875 -5.390625 6.394531 -5.316406 6.34375 -5.265625 C 6.289062 -5.210938 6.21875 -5.1875 6.125 -5.1875 L 4.234375 -5.1875 C 4.148438 -5.1875 4.109375 -5.148438 4.109375 -5.078125 L 4.109375 -3.203125 C 4.109375 -3.128906 4.148438 -3.09375 4.234375 -3.09375 L 7.90625 -3.09375 C 7.988281 -3.09375 8.054688 -3.066406 8.109375 -3.015625 C 8.160156 -2.960938 8.1875 -2.894531 8.1875 -2.8125 L 8.1875 -0.28125 C 8.1875 -0.195312 8.160156 -0.128906 8.109375 -0.078125 C 8.054688 -0.0234375 7.988281 0 7.90625 0 L 0.78125 0 C 0.695312 0 0.628906 -0.0234375 0.578125 -0.078125 C 0.523438 -0.128906 0.5 -0.195312 0.5 -0.28125 L 0.5 -13.171875 C 0.5 -13.253906 0.523438 -13.320312 0.578125 -13.375 C 0.628906 -13.425781 0.695312 -13.453125 0.78125 -13.453125 L 7.90625 -13.453125 C 7.988281 -13.453125 8.054688 -13.425781 8.109375 -13.375 C 8.160156 -13.320312 8.1875 -13.253906 8.1875 -13.171875 Z M 8.1875 -10.640625 "/></g></g></g><g fill="#75c7fb" fill-opacity="1"><g transform="translate(108.724059, 21.891139)"><g><path d="M 5.75 0 C 5.582031 0 5.476562 -0.0820312 5.4375 -0.25 L 4.265625 -5.078125 C 4.242188 -5.140625 4.21875 -5.171875 4.1875 -5.171875 C 4.132812 -5.171875 4.109375 -5.128906 4.109375 -5.046875 L 4.109375 -0.28125 C 4.109375 -0.195312 4.082031 -0.128906 4.03125 -0.078125 C 3.976562 -0.0234375 3.910156 0 3.828125 0 L 0.78125 0 C 0.695312 0 0.628906 -0.0234375 0.578125 -0.078125 C 0.523438 -0.128906 0.5 -0.195312 0.5 -0.28125 L 0.5 -13.171875 C 0.5 -13.253906 0.523438 -13.320312 0.578125 -13.375 C 0.628906 -13.425781 0.695312 -13.453125 0.78125 -13.453125 L 5.109375 -13.453125 C 5.878906 -13.453125 6.5625 -13.269531 7.15625 -12.90625 C 7.75 -12.539062 8.210938 -12.035156 8.546875 -11.390625 C 8.878906 -10.742188 9.046875 -10.003906 9.046875 -9.171875 C 9.046875 -8.460938 8.925781 -7.828125 8.6875 -7.265625 C 8.445312 -6.710938 8.09375 -6.265625 7.625 -5.921875 C 7.570312 -5.878906 7.554688 -5.828125 7.578125 -5.765625 L 9.125 -0.328125 C 9.132812 -0.296875 9.140625 -0.265625 9.140625 -0.234375 C 9.140625 -0.078125 9.050781 0 8.875 0 Z M 4.234375 -10.359375 C 4.148438 -10.359375 4.109375 -10.320312 4.109375 -10.25 L 4.109375 -8.03125 C 4.109375 -7.957031 4.148438 -7.921875 4.234375 -7.921875 L 4.484375 -7.921875 C 4.765625 -7.921875 4.992188 -8.023438 5.171875 -8.234375 C 5.347656 -8.441406 5.4375 -8.738281 5.4375 -9.125 C 5.4375 -9.519531 5.347656 -9.820312 5.171875 -10.03125 C 5.003906 -10.25 4.773438 -10.359375 4.484375 -10.359375 Z M 4.234375 -10.359375 "/></g></g></g><g fill="#75c7fb" fill-opacity="1"><g transform="translate(118.136672, 21.891139)"><g><path d="M 6.078125 -13.171875 C 6.078125 -13.253906 6.101562 -13.320312 6.15625 -13.375 C 6.207031 -13.425781 6.273438 -13.453125 6.359375 -13.453125 L 9.359375 -13.453125 C 9.453125 -13.453125 9.519531 -13.425781 9.5625 -13.375 C 9.613281 -13.320312 9.640625 -13.253906 9.640625 -13.171875 L 9.640625 -0.28125 C 9.640625 -0.195312 9.613281 -0.128906 9.5625 -0.078125 C 9.519531 -0.0234375 9.453125 0 9.359375 0 L 5.9375 0 C 5.769531 0 5.664062 -0.0820312 5.625 -0.25 L 4.171875 -6.078125 C 4.160156 -6.109375 4.132812 -6.125 4.09375 -6.125 C 4.050781 -6.125 4.03125 -6.097656 4.03125 -6.046875 L 4.078125 -0.28125 C 4.078125 -0.195312 4.050781 -0.128906 4 -0.078125 C 3.945312 -0.0234375 3.875 0 3.78125 0 L 0.78125 0 C 0.695312 0 0.628906 -0.0234375 0.578125 -0.078125 C 0.523438 -0.128906 0.5 -0.195312 0.5 -0.28125 L 0.5 -13.171875 C 0.5 -13.253906 0.523438 -13.320312 0.578125 -13.375 C 0.628906 -13.425781 0.695312 -13.453125 0.78125 -13.453125 L 4.171875 -13.453125 C 4.335938 -13.453125 4.441406 -13.367188 4.484375 -13.203125 L 5.953125 -7.359375 C 5.972656 -7.304688 6 -7.28125 6.03125 -7.28125 C 6.070312 -7.28125 6.09375 -7.304688 6.09375 -7.359375 Z M 6.078125 -13.171875 "/></g></g></g><g fill="#75c7fb" fill-opacity="1"><g transform="translate(128.279238, 21.891139)"><g><path d="M 6.546875 0 C 6.359375 0 6.257812 -0.0859375 6.25 -0.265625 L 6.03125 -1.703125 C 6.03125 -1.734375 6.015625 -1.757812 5.984375 -1.78125 C 5.960938 -1.8125 5.9375 -1.828125 5.90625 -1.828125 L 4.203125 -1.828125 C 4.171875 -1.828125 4.140625 -1.8125 4.109375 -1.78125 C 4.085938 -1.757812 4.078125 -1.734375 4.078125 -1.703125 L 3.875 -0.265625 C 3.863281 -0.0859375 3.765625 0 3.578125 0 L 0.5625 0 C 0.351562 0 0.269531 -0.101562 0.3125 -0.3125 L 3.03125 -13.203125 C 3.070312 -13.367188 3.179688 -13.453125 3.359375 -13.453125 L 6.859375 -13.453125 C 7.035156 -13.453125 7.144531 -13.367188 7.1875 -13.203125 L 9.921875 -0.3125 L 9.921875 -0.234375 C 9.921875 -0.078125 9.828125 0 9.640625 0 Z M 4.5 -4.703125 C 4.5 -4.628906 4.53125 -4.59375 4.59375 -4.59375 L 5.5 -4.59375 C 5.582031 -4.59375 5.613281 -4.628906 5.59375 -4.703125 L 5.078125 -8.171875 C 5.054688 -8.222656 5.035156 -8.25 5.015625 -8.25 C 4.992188 -8.25 4.972656 -8.222656 4.953125 -8.171875 Z M 4.5 -4.703125 "/></g></g></g><g fill="#75c7fb" fill-opacity="1"><g transform="translate(138.47943, 21.891139)"><g><path d="M 6.84375 -13.234375 C 6.914062 -13.378906 7.03125 -13.453125 7.1875 -13.453125 L 10.1875 -13.453125 C 10.28125 -13.453125 10.347656 -13.425781 10.390625 -13.375 C 10.441406 -13.320312 10.46875 -13.253906 10.46875 -13.171875 L 10.46875 -0.28125 C 10.46875 -0.195312 10.441406 -0.128906 10.390625 -0.078125 C 10.347656 -0.0234375 10.28125 0 10.1875 0 L 7.15625 0 C 7.0625 0 6.988281 -0.0234375 6.9375 -0.078125 C 6.882812 -0.128906 6.859375 -0.195312 6.859375 -0.28125 L 6.859375 -8.109375 C 6.859375 -8.160156 6.84375 -8.191406 6.8125 -8.203125 C 6.78125 -8.210938 6.75 -8.195312 6.71875 -8.15625 L 5.625 -6.296875 L 5.4375 -5.953125 L 5.421875 -5.953125 L 4.15625 -8.15625 C 4.125 -8.195312 4.09375 -8.210938 4.0625 -8.203125 C 4.03125 -8.203125 4.015625 -8.171875 4.015625 -8.109375 L 4.015625 -0.28125 C 4.015625 -0.195312 3.988281 -0.128906 3.9375 -0.078125 C 3.882812 -0.0234375 3.816406 0 3.734375 0 L 0.6875 0 C 0.601562 0 0.535156 -0.0234375 0.484375 -0.078125 C 0.429688 -0.128906 0.40625 -0.195312 0.40625 -0.28125 L 0.40625 -13.171875 C 0.40625 -13.253906 0.429688 -13.320312 0.484375 -13.375 C 0.535156 -13.425781 0.601562 -13.453125 0.6875 -13.453125 L 3.6875 -13.453125 C 3.851562 -13.453125 3.96875 -13.378906 4.03125 -13.234375 L 5.375 -10.78125 C 5.40625 -10.738281 5.4375 -10.710938 5.46875 -10.703125 C 5.5 -10.703125 5.519531 -10.726562 5.53125 -10.78125 Z M 6.84375 -13.234375 "/></g></g></g><g fill="#75c7fb" fill-opacity="1"><g transform="translate(149.351949, 21.891139)"><g><path d="M 9 -3.78125 C 9 -2.5625 8.609375 -1.625 7.828125 -0.96875 C 7.046875 -0.320312 6.050781 0 4.84375 0 L 0.78125 0 C 0.695312 0 0.628906 -0.0234375 0.578125 -0.078125 C 0.523438 -0.128906 0.5 -0.195312 0.5 -0.28125 L 0.5 -13.171875 C 0.5 -13.253906 0.523438 -13.320312 0.578125 -13.375 C 0.628906 -13.425781 0.695312 -13.453125 0.78125 -13.453125 L 4.265625 -13.453125 C 5.660156 -13.453125 6.75 -13.132812 7.53125 -12.5 C 8.320312 -11.875 8.71875 -10.929688 8.71875 -9.671875 C 8.71875 -8.492188 8.351562 -7.613281 7.625 -7.03125 C 7.5625 -6.976562 7.550781 -6.9375 7.59375 -6.90625 C 8.53125 -6.1875 9 -5.144531 9 -3.78125 Z M 4.234375 -10.359375 C 4.148438 -10.359375 4.109375 -10.320312 4.109375 -10.25 L 4.109375 -8.328125 C 4.109375 -8.242188 4.148438 -8.203125 4.234375 -8.203125 L 4.328125 -8.203125 C 4.898438 -8.203125 5.1875 -8.5625 5.1875 -9.28125 C 5.1875 -10 4.898438 -10.359375 4.328125 -10.359375 Z M 4.5625 -3.09375 C 4.800781 -3.09375 4.992188 -3.195312 5.140625 -3.40625 C 5.296875 -3.625 5.375 -3.929688 5.375 -4.328125 C 5.375 -4.722656 5.300781 -5.035156 5.15625 -5.265625 C 5.007812 -5.503906 4.816406 -5.625 4.578125 -5.625 L 4.234375 -5.625 C 4.148438 -5.625 4.109375 -5.585938 4.109375 -5.515625 L 4.109375 -3.203125 C 4.109375 -3.128906 4.148438 -3.09375 4.234375 -3.09375 Z M 4.5625 -3.09375 "/></g></g></g><g fill="#75c7fb" fill-opacity="1"><g transform="translate(158.649299, 21.891139)"><g><path d="M 4.625 0.15625 C 3.789062 0.15625 3.0625 -0.015625 2.4375 -0.359375 C 1.8125 -0.710938 1.328125 -1.203125 0.984375 -1.828125 C 0.640625 -2.453125 0.46875 -3.175781 0.46875 -4 L 0.46875 -13.171875 C 0.46875 -13.253906 0.488281 -13.320312 0.53125 -13.375 C 0.582031 -13.425781 0.65625 -13.453125 0.75 -13.453125 L 3.78125 -13.453125 C 3.875 -13.453125 3.945312 -13.425781 4 -13.375 C 4.050781 -13.320312 4.078125 -13.253906 4.078125 -13.171875 L 4.078125 -3.65625 C 4.078125 -3.4375 4.125 -3.257812 4.21875 -3.125 C 4.320312 -3 4.457031 -2.9375 4.625 -2.9375 C 4.789062 -2.9375 4.921875 -3 5.015625 -3.125 C 5.117188 -3.257812 5.171875 -3.4375 5.171875 -3.65625 L 5.171875 -13.171875 C 5.171875 -13.253906 5.195312 -13.320312 5.25 -13.375 C 5.300781 -13.425781 5.367188 -13.453125 5.453125 -13.453125 L 8.5 -13.453125 C 8.582031 -13.453125 8.648438 -13.425781 8.703125 -13.375 C 8.753906 -13.320312 8.78125 -13.253906 8.78125 -13.171875 L 8.78125 -4 C 8.78125 -3.175781 8.609375 -2.453125 8.265625 -1.828125 C 7.921875 -1.203125 7.429688 -0.710938 6.796875 -0.359375 C 6.171875 -0.015625 5.445312 0.15625 4.625 0.15625 Z M 4.625 0.15625 "/></g></g></g><g fill="#75c7fb" fill-opacity="1"><g transform="translate(167.889022, 21.891139)"><g><path d="M 4.59375 0.15625 C 3.320312 0.15625 2.300781 -0.210938 1.53125 -0.953125 C 0.769531 -1.703125 0.390625 -2.695312 0.390625 -3.9375 L 0.390625 -9.546875 C 0.390625 -10.796875 0.769531 -11.785156 1.53125 -12.515625 C 2.289062 -13.242188 3.3125 -13.609375 4.59375 -13.609375 C 5.863281 -13.609375 6.878906 -13.242188 7.640625 -12.515625 C 8.410156 -11.785156 8.796875 -10.796875 8.796875 -9.546875 L 8.796875 -9.453125 C 8.796875 -9.367188 8.769531 -9.296875 8.71875 -9.234375 C 8.664062 -9.171875 8.597656 -9.140625 8.515625 -9.140625 L 5.484375 -9.046875 C 5.285156 -9.046875 5.1875 -9.140625 5.1875 -9.328125 L 5.1875 -9.796875 C 5.1875 -10.015625 5.128906 -10.1875 5.015625 -10.3125 C 4.910156 -10.445312 4.769531 -10.515625 4.59375 -10.515625 C 4.414062 -10.515625 4.269531 -10.445312 4.15625 -10.3125 C 4.050781 -10.1875 4 -10.015625 4 -9.796875 L 4 -3.625 C 4 -3.414062 4.050781 -3.25 4.15625 -3.125 C 4.269531 -3 4.414062 -2.9375 4.59375 -2.9375 C 4.769531 -2.9375 4.910156 -3 5.015625 -3.125 C 5.128906 -3.25 5.1875 -3.414062 5.1875 -3.625 L 5.1875 -4.15625 C 5.1875 -4.332031 5.285156 -4.421875 5.484375 -4.421875 L 8.515625 -4.328125 C 8.597656 -4.328125 8.664062 -4.296875 8.71875 -4.234375 C 8.769531 -4.179688 8.796875 -4.109375 8.796875 -4.015625 L 8.796875 -3.9375 C 8.796875 -3.113281 8.617188 -2.390625 8.265625 -1.765625 C 7.921875 -1.148438 7.429688 -0.675781 6.796875 -0.34375 C 6.160156 -0.0078125 5.425781 0.15625 4.59375 0.15625 Z M 4.59375 0.15625 "/></g></g></g><g fill="#75c7fb" fill-opacity="1"><g transform="translate(177.032702, 21.891139)"><g><path d="M 4.65625 0.15625 C 3.351562 0.15625 2.316406 -0.210938 1.546875 -0.953125 C 0.773438 -1.703125 0.390625 -2.703125 0.390625 -3.953125 L 0.390625 -9.5 C 0.390625 -10.75 0.773438 -11.742188 1.546875 -12.484375 C 2.316406 -13.234375 3.351562 -13.609375 4.65625 -13.609375 C 5.945312 -13.609375 6.976562 -13.234375 7.75 -12.484375 C 8.53125 -11.742188 8.921875 -10.75 8.921875 -9.5 L 8.921875 -3.953125 C 8.921875 -2.703125 8.53125 -1.703125 7.75 -0.953125 C 6.976562 -0.210938 5.945312 0.15625 4.65625 0.15625 Z M 4.65625 -2.9375 C 4.851562 -2.9375 5.007812 -3.015625 5.125 -3.171875 C 5.238281 -3.328125 5.296875 -3.539062 5.296875 -3.8125 L 5.296875 -9.640625 C 5.296875 -9.910156 5.238281 -10.125 5.125 -10.28125 C 5.007812 -10.4375 4.851562 -10.515625 4.65625 -10.515625 C 4.445312 -10.515625 4.285156 -10.4375 4.171875 -10.28125 C 4.054688 -10.125 4 -9.910156 4 -9.640625 L 4 -3.8125 C 4 -3.539062 4.054688 -3.328125 4.171875 -3.171875 C 4.285156 -3.015625 4.445312 -2.9375 4.65625 -2.9375 Z M 4.65625 -2.9375 "/></g></g></g><g fill="#d32f23" fill-opacity="0.4196"><g transform="translate(186.894334, 22.405602)"><g/></g></g><g fill="#d32f23" fill-opacity="0.4196"><g transform="translate(190.73622, 22.405602)"><g/></g></g><g fill="#75c7fb" fill-opacity="1"><g transform="translate(186.322962, 21.891139)"><g/></g></g><g fill="#75c7fb" fill-opacity="1"><g transform="translate(190.164849, 21.891139)"><g/></g></g><g fill="#d32f23" fill-opacity="0.4196"><g transform="translate(194.571157, 22.405602)"><g><path d="M 4.625 0.15625 C 3.789062 0.15625 3.0625 -0.015625 2.4375 -0.359375 C 1.8125 -0.710938 1.328125 -1.203125 0.984375 -1.828125 C 0.640625 -2.453125 0.46875 -3.175781 0.46875 -4 L 0.46875 -13.171875 C 0.46875 -13.253906 0.488281 -13.320312 0.53125 -13.375 C 0.582031 -13.425781 0.65625 -13.453125 0.75 -13.453125 L 3.78125 -13.453125 C 3.875 -13.453125 3.945312 -13.425781 4 -13.375 C 4.050781 -13.320312 4.078125 -13.253906 4.078125 -13.171875 L 4.078125 -3.65625 C 4.078125 -3.4375 4.125 -3.257812 4.21875 -3.125 C 4.320312 -3 4.457031 -2.9375 4.625 -2.9375 C 4.789062 -2.9375 4.921875 -3 5.015625 -3.125 C 5.117188 -3.257812 5.171875 -3.4375 5.171875 -3.65625 L 5.171875 -13.171875 C 5.171875 -13.253906 5.195312 -13.320312 5.25 -13.375 C 5.300781 -13.425781 5.367188 -13.453125 5.453125 -13.453125 L 8.5 -13.453125 C 8.582031 -13.453125 8.648438 -13.425781 8.703125 -13.375 C 8.753906 -13.320312 8.78125 -13.253906 8.78125 -13.171875 L 8.78125 -4 C 8.78125 -3.175781 8.609375 -2.453125 8.265625 -1.828125 C 7.921875 -1.203125 7.429688 -0.710938 6.796875 -0.359375 C 6.171875 -0.015625 5.445312 0.15625 4.625 0.15625 Z M 4.625 0.15625 "/></g></g></g><g fill="#d32f23" fill-opacity="0.4196"><g transform="translate(203.81088, 22.405602)"><g><path d="M 6.078125 -13.171875 C 6.078125 -13.253906 6.101562 -13.320312 6.15625 -13.375 C 6.207031 -13.425781 6.273438 -13.453125 6.359375 -13.453125 L 9.359375 -13.453125 C 9.453125 -13.453125 9.519531 -13.425781 9.5625 -13.375 C 9.613281 -13.320312 9.640625 -13.253906 9.640625 -13.171875 L 9.640625 -0.28125 C 9.640625 -0.195312 9.613281 -0.128906 9.5625 -0.078125 C 9.519531 -0.0234375 9.453125 0 9.359375 0 L 5.9375 0 C 5.769531 0 5.664062 -0.0820312 5.625 -0.25 L 4.171875 -6.078125 C 4.160156 -6.109375 4.132812 -6.125 4.09375 -6.125 C 4.050781 -6.125 4.03125 -6.097656 4.03125 -6.046875 L 4.078125 -0.28125 C 4.078125 -0.195312 4.050781 -0.128906 4 -0.078125 C 3.945312 -0.0234375 3.875 0 3.78125 0 L 0.78125 0 C 0.695312 0 0.628906 -0.0234375 0.578125 -0.078125 C 0.523438 -0.128906 0.5 -0.195312 0.5 -0.28125 L 0.5 -13.171875 C 0.5 -13.253906 0.523438 -13.320312 0.578125 -13.375 C 0.628906 -13.425781 0.695312 -13.453125 0.78125 -13.453125 L 4.171875 -13.453125 C 4.335938 -13.453125 4.441406 -13.367188 4.484375 -13.203125 L 5.953125 -7.359375 C 5.972656 -7.304688 6 -7.28125 6.03125 -7.28125 C 6.070312 -7.28125 6.09375 -7.304688 6.09375 -7.359375 Z M 6.078125 -13.171875 "/></g></g></g><g fill="#d32f23" fill-opacity="0.4196"><g transform="translate(213.953446, 22.405602)"><g><path d="M 0.78125 0 C 0.695312 0 0.628906 -0.0234375 0.578125 -0.078125 C 0.523438 -0.128906 0.5 -0.195312 0.5 -0.28125 L 0.5 -13.171875 C 0.5 -13.253906 0.523438 -13.320312 0.578125 -13.375 C 0.628906 -13.425781 0.695312 -13.453125 0.78125 -13.453125 L 3.828125 -13.453125 C 3.910156 -13.453125 3.976562 -13.425781 4.03125 -13.375 C 4.082031 -13.320312 4.109375 -13.253906 4.109375 -13.171875 L 4.109375 -0.28125 C 4.109375 -0.195312 4.082031 -0.128906 4.03125 -0.078125 C 3.976562 -0.0234375 3.910156 0 3.828125 0 Z M 0.78125 0 "/></g></g></g><g fill="#d32f23" fill-opacity="0.4196"><g transform="translate(218.563703, 22.405602)"><g><path d="M 8.953125 -13.453125 C 9.046875 -13.453125 9.117188 -13.425781 9.171875 -13.375 C 9.222656 -13.320312 9.25 -13.253906 9.25 -13.171875 L 9.25 -10.640625 C 9.25 -10.554688 9.222656 -10.488281 9.171875 -10.4375 C 9.117188 -10.382812 9.046875 -10.359375 8.953125 -10.359375 L 6.6875 -10.359375 C 6.613281 -10.359375 6.578125 -10.320312 6.578125 -10.25 L 6.578125 -0.28125 C 6.578125 -0.195312 6.550781 -0.128906 6.5 -0.078125 C 6.445312 -0.0234375 6.375 0 6.28125 0 L 3.25 0 C 3.15625 0 3.082031 -0.0234375 3.03125 -0.078125 C 2.976562 -0.128906 2.953125 -0.195312 2.953125 -0.28125 L 2.953125 -10.25 C 2.953125 -10.320312 2.914062 -10.359375 2.84375 -10.359375 L 0.640625 -10.359375 C 0.546875 -10.359375 0.472656 -10.382812 0.421875 -10.4375 C 0.367188 -10.488281 0.34375 -10.554688 0.34375 -10.640625 L 0.34375 -13.171875 C 0.34375 -13.253906 0.367188 -13.320312 0.421875 -13.375 C 0.472656 -13.425781 0.546875 -13.453125 0.640625 -13.453125 Z M 8.953125 -13.453125 "/></g></g></g><g fill="#d32f23" fill-opacity="0.4196"><g transform="translate(228.149194, 22.405602)"><g><path d="M 8.1875 -10.640625 C 8.1875 -10.554688 8.160156 -10.488281 8.109375 -10.4375 C 8.054688 -10.382812 7.988281 -10.359375 7.90625 -10.359375 L 4.234375 -10.359375 C 4.148438 -10.359375 4.109375 -10.320312 4.109375 -10.25 L 4.109375 -8.40625 C 4.109375 -8.320312 4.148438 -8.28125 4.234375 -8.28125 L 6.125 -8.28125 C 6.21875 -8.28125 6.289062 -8.253906 6.34375 -8.203125 C 6.394531 -8.148438 6.421875 -8.082031 6.421875 -8 L 6.421875 -5.484375 C 6.421875 -5.390625 6.394531 -5.316406 6.34375 -5.265625 C 6.289062 -5.210938 6.21875 -5.1875 6.125 -5.1875 L 4.234375 -5.1875 C 4.148438 -5.1875 4.109375 -5.148438 4.109375 -5.078125 L 4.109375 -3.203125 C 4.109375 -3.128906 4.148438 -3.09375 4.234375 -3.09375 L 7.90625 -3.09375 C 7.988281 -3.09375 8.054688 -3.066406 8.109375 -3.015625 C 8.160156 -2.960938 8.1875 -2.894531 8.1875 -2.8125 L 8.1875 -0.28125 C 8.1875 -0.195312 8.160156 -0.128906 8.109375 -0.078125 C 8.054688 -0.0234375 7.988281 0 7.90625 0 L 0.78125 0 C 0.695312 0 0.628906 -0.0234375 0.578125 -0.078125 C 0.523438 -0.128906 0.5 -0.195312 0.5 -0.28125 L 0.5 -13.171875 C 0.5 -13.253906 0.523438 -13.320312 0.578125 -13.375 C 0.628906 -13.425781 0.695312 -13.453125 0.78125 -13.453125 L 7.90625 -13.453125 C 7.988281 -13.453125 8.054688 -13.425781 8.109375 -13.375 C 8.160156 -13.320312 8.1875 -13.253906 8.1875 -13.171875 Z M 8.1875 -10.640625 "/></g></g></g><g fill="#d32f23" fill-opacity="0.4196"><g transform="translate(236.678173, 22.405602)"><g><path d="M 0.78125 0 C 0.695312 0 0.628906 -0.0234375 0.578125 -0.078125 C 0.523438 -0.128906 0.5 -0.195312 0.5 -0.28125 L 0.5 -13.171875 C 0.5 -13.253906 0.523438 -13.320312 0.578125 -13.375 C 0.628906 -13.425781 0.695312 -13.453125 0.78125 -13.453125 L 4.578125 -13.453125 C 5.421875 -13.453125 6.164062 -13.289062 6.8125 -12.96875 C 7.457031 -12.644531 7.957031 -12.191406 8.3125 -11.609375 C 8.675781 -11.035156 8.859375 -10.367188 8.859375 -9.609375 L 8.859375 -3.84375 C 8.859375 -3.082031 8.675781 -2.410156 8.3125 -1.828125 C 7.957031 -1.242188 7.457031 -0.789062 6.8125 -0.46875 C 6.164062 -0.15625 5.421875 0 4.578125 0 Z M 4.109375 -3.203125 C 4.109375 -3.128906 4.148438 -3.09375 4.234375 -3.09375 L 4.5 -3.109375 C 4.695312 -3.117188 4.867188 -3.210938 5.015625 -3.390625 C 5.160156 -3.578125 5.238281 -3.8125 5.25 -4.09375 L 5.25 -9.375 C 5.25 -9.675781 5.175781 -9.914062 5.03125 -10.09375 C 4.894531 -10.269531 4.710938 -10.359375 4.484375 -10.359375 L 4.234375 -10.359375 C 4.148438 -10.359375 4.109375 -10.320312 4.109375 -10.25 Z M 4.109375 -3.203125 "/></g></g></g><g fill="#ff3131" fill-opacity="1"><g transform="translate(193.999786, 21.891139)"><g><path d="M 4.625 0.15625 C 3.789062 0.15625 3.0625 -0.015625 2.4375 -0.359375 C 1.8125 -0.710938 1.328125 -1.203125 0.984375 -1.828125 C 0.640625 -2.453125 0.46875 -3.175781 0.46875 -4 L 0.46875 -13.171875 C 0.46875 -13.253906 0.488281 -13.320312 0.53125 -13.375 C 0.582031 -13.425781 0.65625 -13.453125 0.75 -13.453125 L 3.78125 -13.453125 C 3.875 -13.453125 3.945312 -13.425781 4 -13.375 C 4.050781 -13.320312 4.078125 -13.253906 4.078125 -13.171875 L 4.078125 -3.65625 C 4.078125 -3.4375 4.125 -3.257812 4.21875 -3.125 C 4.320312 -3 4.457031 -2.9375 4.625 -2.9375 C 4.789062 -2.9375 4.921875 -3 5.015625 -3.125 C 5.117188 -3.257812 5.171875 -3.4375 5.171875 -3.65625 L 5.171875 -13.171875 C 5.171875 -13.253906 5.195312 -13.320312 5.25 -13.375 C 5.300781 -13.425781 5.367188 -13.453125 5.453125 -13.453125 L 8.5 -13.453125 C 8.582031 -13.453125 8.648438 -13.425781 8.703125 -13.375 C 8.753906 -13.320312 8.78125 -13.253906 8.78125 -13.171875 L 8.78125 -4 C 8.78125 -3.175781 8.609375 -2.453125 8.265625 -1.828125 C 7.921875 -1.203125 7.429688 -0.710938 6.796875 -0.359375 C 6.171875 -0.015625 5.445312 0.15625 4.625 0.15625 Z M 4.625 0.15625 "/></g></g></g><g fill="#ff3131" fill-opacity="1"><g transform="translate(203.239509, 21.891139)"><g><path d="M 6.078125 -13.171875 C 6.078125 -13.253906 6.101562 -13.320312 6.15625 -13.375 C 6.207031 -13.425781 6.273438 -13.453125 6.359375 -13.453125 L 9.359375 -13.453125 C 9.453125 -13.453125 9.519531 -13.425781 9.5625 -13.375 C 9.613281 -13.320312 9.640625 -13.253906 9.640625 -13.171875 L 9.640625 -0.28125 C 9.640625 -0.195312 9.613281 -0.128906 9.5625 -0.078125 C 9.519531 -0.0234375 9.453125 0 9.359375 0 L 5.9375 0 C 5.769531 0 5.664062 -0.0820312 5.625 -0.25 L 4.171875 -6.078125 C 4.160156 -6.109375 4.132812 -6.125 4.09375 -6.125 C 4.050781 -6.125 4.03125 -6.097656 4.03125 -6.046875 L 4.078125 -0.28125 C 4.078125 -0.195312 4.050781 -0.128906 4 -0.078125 C 3.945312 -0.0234375 3.875 0 3.78125 0 L 0.78125 0 C 0.695312 0 0.628906 -0.0234375 0.578125 -0.078125 C 0.523438 -0.128906 0.5 -0.195312 0.5 -0.28125 L 0.5 -13.171875 C 0.5 -13.253906 0.523438 -13.320312 0.578125 -13.375 C 0.628906 -13.425781 0.695312 -13.453125 0.78125 -13.453125 L 4.171875 -13.453125 C 4.335938 -13.453125 4.441406 -13.367188 4.484375 -13.203125 L 5.953125 -7.359375 C 5.972656 -7.304688 6 -7.28125 6.03125 -7.28125 C 6.070312 -7.28125 6.09375 -7.304688 6.09375 -7.359375 Z M 6.078125 -13.171875 "/></g></g></g><g fill="#ff3131" fill-opacity="1"><g transform="translate(213.382075, 21.891139)"><g><path d="M 0.78125 0 C 0.695312 0 0.628906 -0.0234375 0.578125 -0.078125 C 0.523438 -0.128906 0.5 -0.195312 0.5 -0.28125 L 0.5 -13.171875 C 0.5 -13.253906 0.523438 -13.320312 0.578125 -13.375 C 0.628906 -13.425781 0.695312 -13.453125 0.78125 -13.453125 L 3.828125 -13.453125 C 3.910156 -13.453125 3.976562 -13.425781 4.03125 -13.375 C 4.082031 -13.320312 4.109375 -13.253906 4.109375 -13.171875 L 4.109375 -0.28125 C 4.109375 -0.195312 4.082031 -0.128906 4.03125 -0.078125 C 3.976562 -0.0234375 3.910156 0 3.828125 0 Z M 0.78125 0 "/></g></g></g><g fill="#ff3131" fill-opacity="1"><g transform="translate(217.992332, 21.891139)"><g><path d="M 8.953125 -13.453125 C 9.046875 -13.453125 9.117188 -13.425781 9.171875 -13.375 C 9.222656 -13.320312 9.25 -13.253906 9.25 -13.171875 L 9.25 -10.640625 C 9.25 -10.554688 9.222656 -10.488281 9.171875 -10.4375 C 9.117188 -10.382812 9.046875 -10.359375 8.953125 -10.359375 L 6.6875 -10.359375 C 6.613281 -10.359375 6.578125 -10.320312 6.578125 -10.25 L 6.578125 -0.28125 C 6.578125 -0.195312 6.550781 -0.128906 6.5 -0.078125 C 6.445312 -0.0234375 6.375 0 6.28125 0 L 3.25 0 C 3.15625 0 3.082031 -0.0234375 3.03125 -0.078125 C 2.976562 -0.128906 2.953125 -0.195312 2.953125 -0.28125 L 2.953125 -10.25 C 2.953125 -10.320312 2.914062 -10.359375 2.84375 -10.359375 L 0.640625 -10.359375 C 0.546875 -10.359375 0.472656 -10.382812 0.421875 -10.4375 C 0.367188 -10.488281 0.34375 -10.554688 0.34375 -10.640625 L 0.34375 -13.171875 C 0.34375 -13.253906 0.367188 -13.320312 0.421875 -13.375 C 0.472656 -13.425781 0.546875 -13.453125 0.640625 -13.453125 Z M 8.953125 -13.453125 "/></g></g></g><g fill="#ff3131" fill-opacity="1"><g transform="translate(227.577823, 21.891139)"><g><path d="M 8.1875 -10.640625 C 8.1875 -10.554688 8.160156 -10.488281 8.109375 -10.4375 C 8.054688 -10.382812 7.988281 -10.359375 7.90625 -10.359375 L 4.234375 -10.359375 C 4.148438 -10.359375 4.109375 -10.320312 4.109375 -10.25 L 4.109375 -8.40625 C 4.109375 -8.320312 4.148438 -8.28125 4.234375 -8.28125 L 6.125 -8.28125 C 6.21875 -8.28125 6.289062 -8.253906 6.34375 -8.203125 C 6.394531 -8.148438 6.421875 -8.082031 6.421875 -8 L 6.421875 -5.484375 C 6.421875 -5.390625 6.394531 -5.316406 6.34375 -5.265625 C 6.289062 -5.210938 6.21875 -5.1875 6.125 -5.1875 L 4.234375 -5.1875 C 4.148438 -5.1875 4.109375 -5.148438 4.109375 -5.078125 L 4.109375 -3.203125 C 4.109375 -3.128906 4.148438 -3.09375 4.234375 -3.09375 L 7.90625 -3.09375 C 7.988281 -3.09375 8.054688 -3.066406 8.109375 -3.015625 C 8.160156 -2.960938 8.1875 -2.894531 8.1875 -2.8125 L 8.1875 -0.28125 C 8.1875 -0.195312 8.160156 -0.128906 8.109375 -0.078125 C 8.054688 -0.0234375 7.988281 0 7.90625 0 L 0.78125 0 C 0.695312 0 0.628906 -0.0234375 0.578125 -0.078125 C 0.523438 -0.128906 0.5 -0.195312 0.5 -0.28125 L 0.5 -13.171875 C 0.5 -13.253906 0.523438 -13.320312 0.578125 -13.375 C 0.628906 -13.425781 0.695312 -13.453125 0.78125 -13.453125 L 7.90625 -13.453125 C 7.988281 -13.453125 8.054688 -13.425781 8.109375 -13.375 C 8.160156 -13.320312 8.1875 -13.253906 8.1875 -13.171875 Z M 8.1875 -10.640625 "/></g></g></g><g fill="#ff3131" fill-opacity="1"><g transform="translate(236.106802, 21.891139)"><g><path d="M 0.78125 0 C 0.695312 0 0.628906 -0.0234375 0.578125 -0.078125 C 0.523438 -0.128906 0.5 -0.195312 0.5 -0.28125 L 0.5 -13.171875 C 0.5 -13.253906 0.523438 -13.320312 0.578125 -13.375 C 0.628906 -13.425781 0.695312 -13.453125 0.78125 -13.453125 L 4.578125 -13.453125 C 5.421875 -13.453125 6.164062 -13.289062 6.8125 -12.96875 C 7.457031 -12.644531 7.957031 -12.191406 8.3125 -11.609375 C 8.675781 -11.035156 8.859375 -10.367188 8.859375 -9.609375 L 8.859375 -3.84375 C 8.859375 -3.082031 8.675781 -2.410156 8.3125 -1.828125 C 7.957031 -1.242188 7.457031 -0.789062 6.8125 -0.46875 C 6.164062 -0.15625 5.421875 0 4.578125 0 Z M 4.109375 -3.203125 C 4.109375 -3.128906 4.148438 -3.09375 4.234375 -3.09375 L 4.5 -3.109375 C 4.695312 -3.117188 4.867188 -3.210938 5.015625 -3.390625 C 5.160156 -3.578125 5.238281 -3.8125 5.25 -4.09375 L 5.25 -9.375 C 5.25 -9.675781 5.175781 -9.914062 5.03125 -10.09375 C 4.894531 -10.269531 4.710938 -10.359375 4.484375 -10.359375 L 4.234375 -10.359375 C 4.148438 -10.359375 4.109375 -10.320312 4.109375 -10.25 Z M 4.109375 -3.203125 "/></g></g></g><g fill="#d32f23" fill-opacity="0.4196"><g transform="translate(245.949502, 22.405602)"><g/></g></g><g fill="#d32f23" fill-opacity="0.4196"><g transform="translate(249.791389, 22.405602)"><g/></g></g><g fill="#d32f23" fill-opacity="0.4196"><g transform="translate(253.633276, 22.405602)"><g/></g></g><g fill="#d32f23" fill-opacity="0.4196"><g transform="translate(257.475162, 22.405602)"><g/></g></g><g fill="#ff3131" fill-opacity="1"><g transform="translate(245.378131, 21.891139)"><g/></g></g><g fill="#ff3131" fill-opacity="1"><g transform="translate(249.220018, 21.891139)"><g/></g></g><g fill="#ff3131" fill-opacity="1"><g transform="translate(253.061904, 21.891139)"><g/></g></g><g fill="#ff3131" fill-opacity="1"><g transform="translate(256.903791, 21.891139)"><g/></g></g></svg>